<?xml version="1.0" encoding="utf-8"?>
<!-- Generator: Adobe Illustrator 23.0.3, SVG Export Plug-In . SVG Version: 6.00 Build 0)  -->
<svg version="1.1" id="圖層_1" xmlns="http://www.w3.org/2000/svg" xmlns:xlink="http://www.w3.org/1999/xlink" x="0px" y="0px"
	 viewBox="0 0 28 28" style="enable-background:new 0 0 28 28;" xml:space="preserve">
<style type="text/css">
	.st0{fill:none;}
	.st1{fill:#555555;}
</style>
<g transform="translate(-2 -289.865)">
	<rect x="2" y="289.9" class="st0" width="28" height="28"/>
	<path class="st1" d="M15.9,290.9c-7.2,0-13,5.8-13,13s5.8,13,13,13s13-5.8,13-13C28.9,296.7,23.1,290.9,15.9,290.9L15.9,290.9z
		 M9.1,313.2L9.1,313.2c0.2-3.8,3.4-6.7,7.1-6.5c3.5,0.2,6.3,3,6.5,6.5C18.7,316.2,13.2,316.2,9.1,313.2z M13,303.7
		c-1.6-1.6-1.6-4.2,0-5.8c0.8-0.8,1.8-1.2,2.9-1.2l0,0c2.3,0,4.1,1.8,4.1,4.1v0.1c0,2.3-1.9,4.1-4.2,4
		C14.8,304.9,13.8,304.4,13,303.7L13,303.7z M24.3,311.8c-0.5-2.8-2.5-5.2-5.2-6.2c2.7-1.7,3.4-5.3,1.7-8c-1.7-2.7-5.3-3.4-8-1.7
		s-3.4,5.3-1.7,8c0.4,0.7,1,1.2,1.7,1.7c-2.7,1.1-4.6,3.4-5.2,6.3C3.2,307.3,3.4,300,8,295.6s11.9-4.2,16.3,0.4
		C28.5,300.4,28.5,307.4,24.3,311.8L24.3,311.8z"/>
</g>
</svg>
