<svg id="圖層_1" data-name="圖層 1" xmlns="http://www.w3.org/2000/svg" viewBox="0 0 819.2 1024.01"><defs><style>.cls-1{fill:#3BB4B7;}</style></defs><title>bookmark_green</title><path class="cls-1" d="M870.4,1024a51.3,51.3,0,0,1-25.4-6.76L512,827l-333,190.3A51.19,51.19,0,0,1,102.4,972.8V51.2A51.2,51.2,0,0,1,153.6,0H870.4a51.2,51.2,0,0,1,51.2,51.2h0V972.8a51.21,51.21,0,0,1-51.2,51.2ZM512,716.8a51.05,51.05,0,0,1,25.39,6.76l281.81,161V102.4H204.8V884.55l281.8-161A51.12,51.12,0,0,1,512,716.8ZM716.8,358.4H563.2V204.8H460.8V358.4H307.2V460.8H460.8V614.4H563.2V460.8H716.8Z" transform="translate(-102.4 0)"/></svg>